# xmcd CD database file
#
# Track frame offsets:
#	150
#	26260
#	47107
#	69385
#	88750
#	108435
#	123272
#	135737
#	151550
#	167337
#	188930
#	200207
#	218577
#	242222
#
# Disc length: 3599 seconds
#
# Revision: 0
# Processed by: cddbd v1.4PL0 Copyright (c) Steve Scherf et al.
# Submitted via: CDex 1.50Beta7
#
DISCID=b90e0d0e
DTITLE=Professor Longhair - Byrd Lives! (Disk 2)
DYEAR=1998
DGENRE=Blues
TTITLE0=Jambalaya
TTITLE1=Her Mind Is Gone
TTITLE2=Tipitina
TTITLE3=Junco Partner
TTITLE4=Big Chief
TTITLE5=Mardi Gras In New Orleans
TTITLE6=Hey Now Baby
TTITLE7=I'm Movin' On
TTITLE8=Lucklle
TTITLE9=It's My Own Fault
TTITLE10=In The Night
TTITLE11=Doin' It
TTITLE12=(Got My) Mojo Workin'
TTITLE13=Stanley's Jam
EXTD=YEAR: 1998
EXTT0=
EXTT1=
EXTT2=
EXTT3=
EXTT4=
EXTT5=
EXTT6=
EXTT7=
EXTT8=
EXTT9=
EXTT10=
EXTT11=
EXTT12=
EXTT13=
PLAYORDER=
